PathFileType	4	(x/y/z)	S08_P20_T11
DataRate	CameraRate	NumFrames	NumMarkers	Units	OrigDataRate	OrigDataStartFrame	OrigNumFrames
240	240	9	51	mm	240	242	386
Frame#	Time	Sternum			R.Acromium			L.Acromium			Top.Head			R.ASIS			L.ASIS			R.PSIS			L.PSIS			R.Great.Tro			L.Great.Tro			R.Iliac.Crest			L.Iliac.Crest			V.Sacral			R.Thigh.Upper.Post			R.Thigh.Lower.Ant			R.Thigh.Lower.Post			R.Thigh.Upper.Ant			R.Knee.Lat			R.Knee.Med			R.Shank.Upper.Post			R.Shank.Lower.Ant			R.Shank.Lower.Post			R.Shank.Upper.Ant			R.Ankle.Lat			R.Ankle.Med			R.Heel.Upper			R.Heel.Med			R.Heel.Lat			R.Toe.Lat			R.Toe.Med			R.Toe.Tip			L.Thigh.Upper.Post			L.Thigh.Lower.Ant			L.Thigh.Lower.Post			L.Thigh.Upper.Ant			L.Knee.Lat			L.Knee.Med			L.Shank.Upper.Post			L.Shank.Lower.Ant			L.Shank.Lower.Post			L.Shank.Upper.Ant			L.Ankle.Lat			L.Ankle.Med			L.Heel.Upper			L.Heel.Med			L.Heel.Lat			L.Toe.Lat			L.Toe.Med			L.Toe.Tip			Cervical.Spine			Back			
		X1	Y1	Z1	X2	Y2	Z2	X3	Y3	Z3	X4	Y4	Z4	X5	Y5	Z5	X6	Y6	Z6	X7	Y7	Z7	X8	Y8	Z8	X9	Y9	Z9	X10	Y10	Z10	X11	Y11	Z11	X12	Y12	Z12	X13	Y13	Z13	X14	Y14	Z14	X15	Y15	Z15	X16	Y16	Z16	X17	Y17	Z17	X18	Y18	Z18	X19	Y19	Z19	X20	Y20	Z20	X21	Y21	Z21	X22	Y22	Z22	X23	Y23	Z23	X24	Y24	Z24	X25	Y25	Z25	X26	Y26	Z26	X27	Y27	Z27	X28	Y28	Z28	X29	Y29	Z29	X30	Y30	Z30	X31	Y31	Z31	X32	Y32	Z32	X33	Y33	Z33	X34	Y34	Z34	X35	Y35	Z35	X36	Y36	Z36	X37	Y37	Z37	X38	Y38	Z38	X39	Y39	Z39	X40	Y40	Z40	X41	Y41	Z41	X42	Y42	Z42	X43	Y43	Z43	X44	Y44	Z44	X45	Y45	Z45	X46	Y46	Z46	X47	Y47	Z47	X48	Y48	Z48	X49	Y49	Z49	X50	Y50	Z50	X51	Y51	Z51	

242	1.0042	6.7819	1207.4	304.58	-98.959	1446.4	489.25	-136.83	1470.1	154.74	-112.44	1766.2	341.87	-26.661	994.36	423.96	-25.947	999.33	191.94	-225.43	1019.3	343.09	-222.99	1021.4	249.78	-110.57	891.63	491.14	-100.17	888.99	120.9	-120.76	1064.6	465.97	-123.13	1078.4	157.88	-240.71	979.75	296.37	-180.26	702.16	471.28	-123.66	589.7	438.78	-190.88	613.37	449.38	-104.87	680.81	461.97	-188.2	503.27	430.62	-203.58	513.39	303.43	-328.87	363.87	431.47	-300.12	280.96	409.94	-362.63	295.29	421.2	-265.66	349.83	421.97	-436.53	142.61	381.22	-400.2	147.73	304.34	-496	119.52	330.58	-489.45	91.354	302.93	-496.82	92.934	364.21	NaN	NaN	NaN	-312.14	45.789	291.95	-248.45	44.464	339.98	-43.317	678.86	143.2	69.425	628.23	166.53	4.4309	604.4	164.55	24.912	701.77	140.27	56.559	521.37	181.79	60.035	523.54	307.39	46.122	334.14	180.77	132.24	265.86	202.96	60.378	262.86	196.47	111.24	337.96	187.71	127.4	101.24	209.4	148.92	113.41	297.42	80.44	68.21	259.29	101.6	37.643	292.14	95.114	42.188	228.05	267.95	64.639	199.03	283.1	77.191	312.54	341.34	108.38	264.76	-183.98	1501.9	323.62	-227.67	1219.1	330.73
243	1.0083	12.769	1207.5	304.15	-93.483	1446.3	488.77	-131.07	1470	154.21	-106.98	1766.2	341.58	-20.435	994.33	423.51	-19.718	999.38	191.54	-219.22	1019.3	342.78	-216.77	1021.5	249.46	-104.2	891.32	490.66	-94.027	889	120.59	-114.52	1064.5	465.68	-116.9	1078.4	157.51	-234.5	979.82	296.01	-172.98	701.41	470.89	-115.71	589.17	438.76	-183.08	612.54	449.12	-97.496	680.43	461.7	-179.96	502.62	430.86	-195.14	512.47	303.73	-322.37	365.12	431.8	-294.93	281.72	410.47	-357.16	297.05	421.68	-259.44	350.13	422.47	-433.53	145.4	382.14	-396.87	149.95	305.26	-492.96	123.9	331.35	-487.14	96.012	303.48	-494.55	97.227	364.77	NaN	NaN	NaN	-311.68	46.165	292.18	-248.29	44.15	340.01	-37.694	678.81	143.13	74.787	627.79	166.64	9.71	604.21	164.63	30.552	701.48	140.33	61.688	521.08	181.9	64.764	523.26	307.47	50.011	333.94	180.72	135.42	264.96	203.36	63.61	262.53	196.43	115.1	337.23	188.08	128.82	100.65	209.57	150.31	112.36	297.69	81.475	68.707	259.53	101.93	37.693	292.22	95.63	42.514	228.13	268.87	62.287	199.58	284	74.329	313.1	342.78	104.78	265.57	-178.37	1501.8	323.07	-221.71	1218.9	330.21
244	1.0125	18.752	1207.7	303.72	-88.035	1446.3	488.29	-125.28	1470.1	153.67	-101.52	1766.2	341.29	-14.204	994.35	423.04	-13.497	999.49	191.13	-213.01	1019.4	342.48	-210.56	1021.6	249.15	-97.774	891.01	490.16	-87.886	889.08	120.26	-108.28	1064.5	465.39	-110.66	1078.5	157.15	-228.29	979.95	295.66	-165.53	700.63	470.52	-107.54	588.64	438.78	-175.06	611.67	448.89	-89.949	680.07	461.45	-171.45	501.94	431.15	-186.4	511.5	304.07	-315.58	366.41	432.16	-289.47	282.53	411.07	-351.4	298.88	422.21	-252.93	350.46	423.02	-430.25	148.33	383.12	-393.28	152.28	306.25	-489.56	128.52	332.2	-484.55	100.95	304.08	-492.01	101.8	365.4	NaN	NaN	NaN	-311.15	46.613	292.43	-248.12	43.833	340.05	-32.084	678.82	142.99	80.125	627.41	166.72	14.964	604.08	164.64	36.179	701.26	140.36	66.779	520.84	181.96	69.381	523.01	307.49	53.86	333.79	180.61	138.56	264.12	203.72	66.795	262.26	196.33	118.92	336.55	188.39	130.13	100.12	209.71	151.62	111.38	297.91	82.423	69.221	259.75	102.18	37.778	292.27	96.054	42.859	228.18	269.67	60	200.04	284.82	71.538	313.56	344.13	101.23	266.25	-172.77	1501.7	322.49	-215.76	1218.8	329.68
245	1.0167	24.728	1208	303.3	-82.615	1446.4	487.8	-119.47	1470.2	153.13	-96.053	1766.3	340.99	-7.9717	994.42	422.56	-7.2922	999.67	190.71	-206.81	1019.5	342.19	-204.37	1021.8	248.85	-91.302	890.72	489.66	-81.757	889.25	119.9	-102.05	1064.5	465.1	-104.44	1078.7	156.8	-222.08	980.11	295.31	-157.93	699.82	470.15	-99.152	588.12	438.84	-166.82	610.77	448.71	-82.234	679.72	461.23	-162.65	501.24	431.49	-177.34	510.46	304.45	-308.48	367.73	432.57	-283.73	283.39	411.73	-345.34	300.77	422.78	-246.14	350.81	423.62	-426.66	151.39	384.17	-389.41	154.7	307.29	-485.79	133.39	333.13	-481.65	106.17	304.74	-489.17	106.65	366.08	NaN	NaN	NaN	-310.52	47.145	292.7	-247.92	43.511	340.09	-26.486	678.91	142.78	85.441	627.1	166.76	20.198	604.01	164.58	41.796	701.12	140.35	71.833	520.66	181.96	73.895	522.8	307.47	57.665	333.7	180.44	141.65	263.34	204.01	69.928	262.06	196.17	122.7	335.92	188.63	131.35	99.644	209.83	152.87	110.46	298.09	83.295	69.743	259.95	102.38	37.891	292.3	96.406	43.215	228.21	270.39	57.802	200.4	285.57	68.844	313.94	345.38	97.776	266.83	-167.18	1501.7	321.91	-209.81	1218.7	329.14
246	1.0208	30.694	1208.3	302.88	-77.222	1446.5	487.31	-113.64	1470.3	152.6	-90.588	1766.4	340.69	-1.7457	994.53	422.06	-1.1084	999.9	190.29	-200.62	1019.7	341.91	-198.2	1022	248.56	-84.789	890.43	489.15	-75.644	889.49	119.53	-95.817	1064.6	464.82	-98.228	1078.9	156.46	-215.89	980.32	294.97	-150.17	698.98	469.81	-90.545	587.61	438.94	-158.39	609.83	448.58	-74.354	679.39	461.02	-153.58	500.52	431.88	-167.97	509.37	304.87	-301.08	369.08	433.03	-277.69	284.3	412.45	-338.99	302.71	423.4	-239.06	351.18	424.26	-422.76	154.59	385.28	-385.25	157.24	308.38	-481.63	138.52	334.14	-478.44	111.66	305.47	-486.01	111.8	366.83	NaN	NaN	NaN	-309.8	47.775	292.99	-247.67	43.182	340.14	-20.9	679.06	142.49	90.742	626.87	166.75	25.42	604.02	164.44	47.404	701.04	140.3	76.852	520.52	181.91	78.323	522.64	307.4	61.419	333.66	180.23	144.67	262.61	204.25	73.006	261.92	195.97	126.42	335.35	188.81	132.47	99.228	209.93	154.04	109.62	298.22	84.096	70.261	260.13	102.54	38.026	292.31	96.699	43.575	228.22	271.02	55.716	200.69	286.25	66.269	314.24	346.55	94.439	267.3	-161.6	1501.8	321.31	-203.87	1218.7	328.58
247	1.025	36.646	1208.7	302.48	-71.855	1446.7	486.82	-107.8	1470.6	152.07	-85.121	1766.6	340.37	4.4685	994.69	421.54	5.0478	1000.2	189.86	-194.45	1019.9	341.64	-192.05	1022.3	248.29	-78.24	890.15	488.63	-69.556	889.82	119.13	-89.602	1064.7	464.54	-92.041	1079.2	156.12	-209.72	980.57	294.64	-142.27	698.1	469.49	-81.73	587.1	439.09	-149.75	608.87	448.49	-66.316	679.09	460.85	-144.23	499.78	432.32	-158.29	508.22	305.31	-293.37	370.47	433.52	-271.37	285.26	413.22	-332.32	304.71	424.07	-231.68	351.57	424.95	-418.52	157.92	386.45	-380.8	159.87	309.51	-477.09	143.89	335.23	-474.88	117.42	306.26	-482.53	117.22	367.65	NaN	NaN	NaN	-308.96	48.514	293.3	-247.38	42.844	340.2	-15.323	679.28	142.14	96.035	626.7	166.7	30.638	604.09	164.22	53.006	701.05	140.21	81.836	520.44	181.8	82.686	522.52	307.27	65.116	333.68	179.97	147.63	261.93	204.43	76.021	261.84	195.74	130.08	334.82	188.93	133.52	98.869	210	155.15	108.85	298.31	84.829	70.765	260.29	102.67	38.175	292.31	96.947	43.931	228.22	271.58	53.761	200.91	286.87	63.832	314.47	347.64	91.254	267.69	-156.02	1501.8	320.71	-197.93	1218.8	328.01
248	1.0292	42.581	1209.2	302.08	-66.513	1446.9	486.33	-101.93	1470.8	151.54	-79.652	1766.8	340.06	10.665	994.88	421.02	11.171	1000.5	189.42	-188.31	1020.1	341.39	-185.94	1022.7	248.03	-71.662	889.87	488.11	-63.498	890.23	118.71	-83.408	1064.8	464.26	-85.881	1079.6	155.8	-203.57	980.85	294.31	-134.23	697.2	469.2	-72.717	586.62	439.29	-140.92	607.87	448.45	-58.124	678.81	460.71	-134.62	499.01	432.79	-148.29	507.01	305.77	-285.35	371.88	434.06	-264.74	286.27	414.03	-325.35	306.76	424.78	-224.01	351.99	425.68	-413.95	161.4	387.68	-376.06	162.61	310.69	-472.16	149.5	336.4	-470.98	123.45	307.12	-478.68	122.92	368.55	NaN	NaN	NaN	-307.98	49.377	293.64	-247.02	42.498	340.27	-9.7547	679.57	141.72	101.32	626.62	166.61	35.859	604.23	163.93	58.603	701.13	140.07	86.788	520.4	181.64	87.005	522.46	307.1	68.744	333.74	179.68	150.52	261.3	204.56	78.965	261.81	195.47	133.67	334.34	188.99	134.48	98.564	210.07	156.19	108.15	298.38	85.496	71.247	260.42	102.78	38.332	292.3	97.157	44.277	228.2	272.09	51.954	201.06	287.43	61.55	314.65	348.63	88.245	268	-150.46	1501.9	320.1	-192.02	1218.9	327.43
249	1.0333	48.495	1209.6	301.7	-61.194	1447.2	485.84	-96.045	1471.1	151.02	-74.181	1767	339.73	16.837	995.11	420.49	17.255	1000.9	188.97	-182.19	1020.3	341.15	-179.87	1023.1	247.78	-65.063	889.59	487.58	-57.477	890.71	118.27	-77.243	1064.9	463.98	-79.755	1080	155.48	-197.46	981.16	293.99	-126.06	696.28	468.94	-63.517	586.15	439.53	-131.91	606.86	448.47	-49.788	678.55	460.6	-124.76	498.24	433.31	-138	505.76	306.25	-277.02	373.32	434.64	-257.82	287.33	414.89	-318.06	308.86	425.53	-216.04	352.44	426.44	-409.03	165.01	388.97	-371.01	165.47	311.9	-466.83	155.34	337.65	-466.72	129.72	308.05	-474.47	128.9	369.53	NaN	NaN	NaN	-306.86	50.376	294.01	-246.58	42.144	340.36	-4.1952	679.92	141.24	106.61	626.62	166.48	41.086	604.44	163.57	64.196	701.29	139.9	91.707	520.4	181.43	91.304	522.45	306.87	72.296	333.84	179.35	153.33	260.72	204.64	81.831	261.83	195.17	137.18	333.89	188.99	135.36	98.31	210.13	157.16	107.53	298.42	86.096	71.7	260.54	102.88	38.493	292.27	97.336	44.608	228.18	272.53	50.305	201.15	287.94	59.434	314.78	349.55	85.434	268.25	-144.91	1502.1	319.49	-186.11	1219	326.85
250	1.0375	54.386	1210.2	301.34	-55.897	1447.5	485.36	-90.147	1471.5	150.51	-68.708	1767.3	339.4	22.98	995.37	419.95	23.296	1001.4	188.52	-176.11	1020.6	340.92	-173.84	1023.5	247.55	-58.448	889.32	487.05	-51.5	891.27	117.81	-71.11	1065	463.7	-73.668	1080.5	155.18	-191.38	981.49	293.68	-117.76	695.33	468.71	-54.142	585.7	439.8	-122.73	605.83	448.55	-41.318	678.32	460.53	-114.65	497.46	433.85	-127.4	504.47	306.73	-268.39	374.79	435.25	-250.61	288.44	415.78	-310.47	311.01	426.32	-207.78	352.92	427.23	-403.75	168.75	390.32	-365.67	168.43	313.14	-461.1	161.39	338.98	-462.08	136.22	309.05	-469.88	135.13	370.58	NaN	NaN	NaN	-305.57	51.524	294.41	-246.03	41.784	340.47	1.3524	680.33	140.7	111.9	626.7	166.31	46.322	604.71	163.14	69.782	701.52	139.69	96.587	520.43	181.17	95.602	522.49	306.61	75.762	333.98	179	156.05	260.18	204.67	84.612	261.9	194.87	140.6	333.49	188.94	136.16	98.103	210.19	158.06	106.98	298.45	86.631	72.119	260.64	102.96	38.652	292.25	97.49	44.918	228.15	272.93	48.821	201.2	288.39	57.494	314.87	350.38	82.833	268.45	-139.37	1502.3	318.88	-180.23	1219.2	326.27
